<svg width="50" height="62" viewBox="0 0 50 62" fill="none" xmlns="http://www.w3.org/2000/svg">
<path fill-rule="evenodd" clip-rule="evenodd" d="M24.5415 7.42021C21.0754 10.4657 17.8697 13.7955 14.9581 17.3749C10.1387 23.3722 6.13539 30.4586 6.13539 37.1554C6.13539 42.037 21.0482 35.5482 24.5 39C27.5 41 20.1184 40.5 25 40.5C25.5 39.5 25.5 37.5 25.5 39C17.5 36.5 42.9477 42.037 42.9477 37.1554C42.9477 30.4586 38.9444 23.3722 34.125 17.3749C31.2134 13.7955 28.0077 10.4657 24.5415 7.42021ZM22.2377 1.32777C22.8862 0.79267 23.7008 0.5 24.5415 0.5C25.3823 0.5 26.1969 0.79267 26.8454 1.32777C31.2542 4.99277 35.2933 9.0811 38.9045 13.5341C43.9355 19.7891 49.0831 28.2775 49.0831 37.1554C49.0831 43.6642 46.4975 49.9064 41.895 54.5088C37.2926 59.1113 31.0504 61.6969 24.5415 61.6969C18.0327 61.6969 11.7905 59.1113 7.18805 54.5088C2.58562 49.9064 0 43.6642 0 37.1554C0 28.2775 5.14759 19.7891 10.1786 13.5311C13.789 9.07925 17.8301 4.99196 22.2377 1.32777Z" fill="white"/>
</svg>
