<svg width="22" height="22" viewBox="0 0 22 22" fill="none" xmlns="http://www.w3.org/2000/svg">
<path d="M11 4V2M11 20V18M6.05 6.05L4.636 4.636M17.364 17.364L15.95 15.95M4 11H2M20 11H18M6.05 15.95L4.636 17.364M17.364 4.636L15.95 6.05M15 11C15 12.0609 14.5786 13.0783 13.8284 13.8284C13.0783 14.5786 12.0609 15 11 15C9.93913 15 8.92172 14.5786 8.17157 13.8284C7.42143 13.0783 7 12.0609 7 11C7 9.93913 7.42143 8.92172 8.17157 8.17157C8.92172 7.42143 9.93913 7 11 7C12.0609 7 13.0783 7.42143 13.8284 8.17157C14.5786 8.92172 15 9.93913 15 11Z" stroke="white" stroke-width="2.66667" stroke-linecap="round" stroke-linejoin="round"/>
</svg>
