<svg width="18" height="19" viewBox="0 0 18 19" fill="none" xmlns="http://www.w3.org/2000/svg">
<path d="M17.385 15.2105L14.3443 11.9963L12.0055 10.9749C12.7843 9.80429 13.2015 8.40772 13.2 6.97663C13.2 3.12969 10.2392 0 6.59999 0C2.96073 0 0 3.12969 0 6.97663C0 10.8236 2.96073 13.9533 6.59999 13.9533C7.9656 13.9549 9.29769 13.5063 10.4107 12.6698L11.3744 15.1354L14.415 18.3498C14.61 18.5559 14.8415 18.7194 15.0963 18.831C15.351 18.9426 15.6241 19 15.8999 19C16.1757 19 16.4488 18.9426 16.7036 18.831C16.9583 18.7195 17.1899 18.556 17.3849 18.3499C17.5799 18.1437 17.7346 17.899 17.8401 17.6297C17.9457 17.3604 18 17.0717 18 16.7802C18 16.4887 17.9457 16.2 17.8402 15.9307C17.7346 15.6613 17.58 15.4166 17.385 15.2105ZM1.2 6.97663C1.2 3.82922 3.62249 1.26848 6.59999 1.26848C9.57748 1.26848 12 3.82922 12 6.97663C12 10.124 9.57748 12.6848 6.59999 12.6848C3.62249 12.6848 1.2 10.124 1.2 6.97663ZM16.5364 17.4528C16.3674 17.631 16.1386 17.731 15.9 17.731C15.6614 17.731 15.4325 17.631 15.2636 17.4528L12.3921 14.4175L11.4961 12.1249L13.665 13.0721L16.5364 16.1074C16.7049 16.286 16.7996 16.5279 16.7995 16.7801C16.7995 17.0324 16.7049 17.2743 16.5364 17.4528Z" fill="white"/>
</svg>
