<svg width="48" height="35" viewBox="0 0 48 35" fill="none" xmlns="http://www.w3.org/2000/svg">
<path d="M42.1525 18.1132C43.5584 17.2868 44.754 16.178 45.6409 14.8777C46.5279 13.5774 47.081 12.1227 47.2548 10.6333C47.4286 9.14381 47.2181 7.66201 46.6407 6.30959C46.0632 4.95717 45.1352 3.77272 43.933 2.85355C42.7307 1.93439 41.2885 1.30672 39.7248 1.02212C38.161 0.737521 36.5204 0.804106 34.9377 1.21641C33.355 1.6287 31.8754 2.37495 30.6203 3.39385C29.3653 4.41275 28.3706 5.67522 27.7181 7.07756C27.4521 7.6637 27.4414 8.30709 27.6885 8.86776C27.9356 9.42844 28.4204 9.86105 29.0375 10.0715C29.6546 10.2819 30.3541 10.2532 30.9838 9.99149C31.6135 9.7298 32.1224 9.25635 32.3999 8.67411C32.725 7.97358 33.2208 7.34262 33.8467 6.83295C34.4726 6.32327 35.2108 5.94938 36.0007 5.74191C37.2839 5.40246 38.6259 5.52256 39.7487 6.07735C40.8716 6.63214 41.6892 7.57909 42.0322 8.72208C42.3753 9.86508 42.2176 11.1165 41.5917 12.2172C40.9657 13.318 39.9196 14.1836 38.67 14.6349L2.19177 27.8875C1.5468 28.1218 1.01182 28.5766 0.704533 29.1518C0.397244 29.727 0.342813 30.3755 0.553215 30.9547C0.763618 31.5338 1.22162 31.9961 1.82646 32.24C2.4313 32.4838 3.13344 32.4891 3.77842 32.2548L40.2566 19.0021C40.9295 18.7577 41.5614 18.4614 42.1525 18.1132ZM6.26221 23.9369L19.6765 19.0634C20.6865 18.6895 21.5965 18.0951 22.3236 17.3342C23.0508 16.5733 23.5722 15.67 23.8406 14.7063C24.1089 13.7426 24.1157 12.7489 23.8603 11.8155C23.605 10.882 23.0955 10.0384 22.3781 9.36104C21.6608 8.68371 20.7583 8.19417 19.7525 7.93683C18.7468 7.67949 17.6696 7.6625 16.6188 7.88739C15.5679 8.11229 14.5767 8.57196 13.735 9.22469C12.8932 9.87742 12.2277 10.7025 11.7988 11.6252C11.5254 12.2132 11.51 12.8612 11.756 13.4267C12.0019 13.9921 12.4891 14.4286 13.1102 14.6402C13.7314 14.8518 14.4357 14.8212 15.0682 14.555C15.7007 14.2888 16.2096 13.8089 16.483 13.2208C16.5687 13.0359 16.702 12.8704 16.8707 12.7396C17.0393 12.6088 17.238 12.5167 17.4486 12.4718C17.6593 12.4269 17.8751 12.4306 18.0765 12.4825C18.278 12.5344 18.4585 12.633 18.6019 12.7691C18.7452 12.9052 18.8466 13.0747 18.897 13.2619C18.9474 13.4492 18.9451 13.6484 18.8904 13.8414C18.8356 14.0343 18.7301 14.2149 18.5835 14.3667C18.4369 14.5184 18.2538 14.6366 18.0509 14.7103L4.67557 19.5696C4.03059 19.8039 3.49562 20.2587 3.18833 20.8339C2.88104 21.4091 2.82661 22.0576 3.03701 22.6367C3.24741 23.2159 3.70541 23.6782 4.31026 23.922C4.9151 24.1658 5.61724 24.1712 6.26221 23.9369ZM37.4022 22.5111L16.7312 30.0209C16.0862 30.2552 15.5512 30.71 15.2439 31.2852C14.9366 31.8604 14.8822 32.5089 15.0926 33.088C15.303 33.6672 15.761 34.1295 16.3658 34.3733C16.9707 34.6172 17.6728 34.6225 18.3178 34.3882L38.9888 26.8783C39.1917 26.8046 39.4079 26.7777 39.6177 26.8C39.8276 26.8222 40.0244 26.893 40.1902 27.0058C40.3561 27.1186 40.4857 27.2699 40.5673 27.4458C40.6488 27.6218 40.6798 27.8168 40.6573 28.0132C40.6348 28.2096 40.5595 28.401 40.4384 28.5701C40.3173 28.7392 40.1541 28.8806 39.9638 28.9814C39.7735 29.0821 39.562 29.1391 39.3487 29.147C39.1354 29.155 38.927 29.1137 38.7425 29.0269C38.4518 28.8872 38.1297 28.804 37.7951 28.7822C37.4605 28.7603 37.1198 28.8001 36.7929 28.8994C36.466 28.9986 36.1592 29.1553 35.8903 29.3605C35.6214 29.5656 35.3957 29.815 35.2262 30.0944C35.0568 30.3737 34.9469 30.6775 34.9031 30.9881C34.8592 31.2987 34.8821 31.61 34.9705 31.904C35.059 32.198 35.2112 32.4688 35.4183 32.701C35.6254 32.9331 35.8834 33.1218 36.1773 33.2563C37.0985 33.6884 38.1384 33.8939 39.2028 33.8542C40.2672 33.8144 41.3224 33.5306 42.2725 33.0285C43.2227 32.5264 44.0378 31.822 44.6438 30.9791C45.2498 30.1362 45.6276 29.1815 45.7429 28.2017C45.8582 27.2219 45.7074 26.2479 45.304 25.3682C44.9007 24.4885 44.2577 23.7309 43.4333 23.1642C42.6089 22.5974 41.6293 22.2395 40.5833 22.1228C39.5373 22.0061 38.458 22.1344 37.4435 22.496L37.4022 22.5111Z" fill="white"/>
</svg>
